<svg xmlns="http://www.w3.org/2000/svg" width="420" height="320" viewBox="0 0 420 320" role="img" aria-label="Ilustrasi bayi lelah">
  <defs>
    <linearGradient id="bg" x1="0" y1="0" x2="1" y2="1"><stop offset="0%" stop-color="#ede9fe"/><stop offset="100%" stop-color="#dbeafe"/></linearGradient>
    <filter id="shadow" x="-20%" y="-20%" width="140%" height="140%"><feDropShadow dx="0" dy="10" stdDeviation="10" flood-color="#0f172a" flood-opacity="0.15"/></filter>
  </defs>
  <rect width="420" height="320" rx="34" fill="url(#bg)"/>
  <circle cx="68" cy="62" r="32" fill="#ffffff" opacity="0.35"/>
  <circle cx="354" cy="76" r="46" fill="#ffffff" opacity="0.25"/>
  <circle cx="348" cy="244" r="30" fill="#ffffff" opacity="0.22"/>
  <g filter="url(#shadow)">
    <ellipse cx="210" cy="254" rx="112" ry="32" fill="#0f172a" opacity="0.12"/>
    <path d="M122 190c0-60 40-104 88-104s88 44 88 104v24c0 40-34 72-88 72s-88-32-88-72v-24Z" fill="#fff7ed"/>
    <circle cx="210" cy="142" r="72" fill="#ffedd5"/>
    <path d="M150 126c12-38 42-62 80-56 28 5 48 24 57 53-31-12-67-14-137 3Z" fill="#7c2d12" opacity="0.22"/>
    <circle cx="186" cy="144" r="6" fill="#1f2937"/>
    <circle cx="234" cy="144" r="6" fill="#1f2937"/>
    <path d="M198 170c8 6 16 6 24 0" fill="none" stroke="#1f2937" stroke-width="5" stroke-linecap="round"/>
    <circle cx="166" cy="162" r="10" fill="#fb7185" opacity="0.32"/>
    <circle cx="254" cy="162" r="10" fill="#fb7185" opacity="0.32"/>
    <path d="M145 214c24 20 47 28 65 28s41-8 65-28v34c-20 24-43 36-65 36s-45-12-65-36v-34Z" fill="#8b5cf6"/>
    <path d="M155 224c38 20 72 20 110 0" fill="none" stroke="#ffffff" stroke-width="8" stroke-linecap="round" opacity="0.65"/>
  </g>
  <g transform="translate(318 154)"><circle cx="0" cy="0" r="34" fill="#fff" opacity="0.85"/><path d="M3 -22c-10 5-17 16-17 29 0 11 5 20 13 26-19-2-33-16-33-34 0-18 15-33 34-34Z" fill="#6366f1" opacity="0.82"/><path d="M18 -20l4 8 9 1-7 6 2 9-8-5-8 5 2-9-7-6 9-1 4-8Z" fill="#facc15"/></g>
  <text x="210" y="302" text-anchor="middle" font-family="Arial, sans-serif" font-size="18" font-weight="700" fill="#0f172a" opacity="0.76">Lelah</text>
</svg>